<svg xmlns="http://www.w3.org/2000/svg" viewBox="0 0 1950 420" width="1950" height="420"><g transform="translate(60,60) scale(0.30000)"><rect x="58" y="58" width="884" height="884" rx="208" ry="208" fill="none" stroke="#000000" stroke-width="34"></rect><g fill="none" stroke="#000000" stroke-width="26" stroke-linecap="round"><path d="M500,838 C 372,724 196,604 188,430"></path><path d="M500,838 C 474,728 408,604 400,430"></path><path d="M500,838 C 526,728 592,604 600,430"></path><path d="M500,838 C 628,724 804,604 812,430"></path></g><g fill="#000000"><path d="M138,338 L246,338 L221,422 L163,422 Z"></path><path d="M346,338 L454,338 L429,422 L371,422 Z"></path><path d="M554,338 L662,338 L637,422 L579,422 Z"></path><path d="M762,338 L870,338 L845,422 L787,422 Z"></path></g><g fill="none" stroke="#000000" stroke-width="22" stroke-linecap="round"><path d="M158,330 A44,44 0 0,1 226,330"></path><path d="M132,312 A78,78 0 0,1 252,312"></path><path d="M366,330 A44,44 0 0,1 434,330"></path><path d="M340,312 A78,78 0 0,1 460,312"></path><path d="M574,330 A44,44 0 0,1 642,330"></path><path d="M548,312 A78,78 0 0,1 668,312"></path><path d="M782,330 A44,44 0 0,1 850,330"></path><path d="M756,312 A78,78 0 0,1 876,312"></path></g><circle cx="500" cy="842" r="62" fill="none" stroke="#000000" stroke-width="28"></circle><circle cx="500" cy="842" r="22" fill="#000000"></circle></g><text x="416" y="210" dominant-baseline="middle" fill="#000000" font-family="system-ui, -apple-system, &#39;Segoe UI&#39;, Helvetica, Arial, sans-serif" font-weight="800" font-size="190" letter-spacing="-4">AudioRouterNow</text></svg>